<svg version="1.1" id="svg2" sodipodi:docname="Adtran.svg" inkscape:version="1.2 (dc2aedaf03, 2022-05-15)" xmlns:inkscape="http://www.inkscape.org/namespaces/inkscape" xmlns:sodipodi="http://sodipodi.sourceforge.net/DTD/sodipodi-0.dtd" xmlns="http://www.w3.org/2000/svg" xmlns:svg="http://www.w3.org/2000/svg" viewBox="-0.03 -0.02 269.8 68.07">
  <defs id="defs6">
    <clipPath clipPathUnits="userSpaceOnUse" id="clipPath38">
      <path d="m 557.541,501.88 h 201.633 v 50.843 H 557.541 Z" id="path36"/>
    </clipPath>
    <clipPath clipPathUnits="userSpaceOnUse" id="clipPath78">
      <path d="m 556.434,255.637 h 202.55 v 51.075 h -202.55 z" id="path76"/>
    </clipPath>
    <clipPath clipPathUnits="userSpaceOnUse" id="clipPath118">
      <path d="m 830.552,500.702 h 202.313 v 51.015 H 830.552 Z" id="path116"/>
    </clipPath>
  </defs>
  <sodipodi:namedview id="namedview4" pagecolor="#505050" bordercolor="#eeeeee" borderopacity="1" inkscape:showpageshadow="0" inkscape:pageopacity="0" inkscape:pagecheckerboard="0" inkscape:deskcolor="#505050" showgrid="false" inkscape:zoom="0.77083333" inkscape:cx="-322.37838" inkscape:cy="-103.13514" inkscape:window-width="1920" inkscape:window-height="1001" inkscape:window-x="-9" inkscape:window-y="-9" inkscape:window-maximized="1" inkscape:current-layer="g8"/>
  <g id="g8" inkscape:groupmode="layer" inkscape:label="7snPLaGUE5ZZ0Egyj6gDzU38z4GHaTkG" transform="matrix(1.3333333,0,0,-1.3333333,-1107.4026,735.62171)">
    <g id="g112">
      <g id="g114" clip-path="url(#clipPath118)">
        <g id="g120" transform="translate(884.8704,510.7553)">
          <path d="m 0,0 c 2.213,-2.456 5.118,-3.683 8.713,-3.683 3.594,0 6.499,1.227 8.713,3.683 2.213,2.455 3.321,5.48 3.321,9.075 0,3.507 -1.108,6.488 -3.321,8.943 -2.214,2.455 -5.119,3.683 -8.713,3.683 C 5.118,21.701 2.213,20.473 0,18.018 -2.215,15.563 -3.321,12.582 -3.321,9.075 -3.321,5.48 -2.215,2.455 0,0 m 24.25,40.961 h 0.136 c 1.761,0 3.188,-1.428 3.188,-3.188 L 27.545,-5.915 c 0,-1.799 -1.458,-3.257 -3.256,-3.257 -1.798,0 -3.256,1.458 -3.256,3.257 v 1.338 c -3.942,-3.636 -7.418,-5.477 -12.618,-5.477 -5.291,0 -9.667,1.843 -13.127,5.529 -3.46,3.686 -5.189,8.219 -5.189,13.602 0,5.291 1.729,9.779 5.189,13.466 3.46,3.686 7.79,5.529 12.991,5.529 5.2,0 8.758,-1.753 12.754,-5.434 l 0.029,15.135 c 0,1.76 1.427,3.188 3.188,3.188" style="fill: rgb(0, 160, 200); fill-opacity: 1; fill-rule: nonzero; stroke: none; --darkreader-inline-fill: #40d9ff; --darkreader-inline-stroke: none;" id="path122" data-darkreader-inline-fill="" data-darkreader-inline-stroke=""/>
        </g>
        <g id="g124" transform="translate(936.8406,506.1089)">
          <path d="m 0,0 v 0 c 0.701,-1.44 0.114,-3.191 -1.329,-3.887 -2.105,-1.013 -4.514,-1.52 -7.226,-1.52 -3.845,0 -6.74,1.187 -8.684,3.562 -1.945,2.374 -2.917,5.732 -2.917,10.074 v 18.044 l 0.068,5.563 0.005,10.513 c 0,1.76 1.428,3.188 3.189,3.188 1.76,0 3.188,-1.428 3.188,-3.188 l -0.005,-10.513 h 9.121 c 1.536,0 2.782,-1.245 2.782,-2.781 0,-1.536 -1.246,-2.782 -2.782,-2.782 h -9.121 V 7.754 c 0,-4.795 1.967,-7.191 5.902,-7.191 1.333,0 2.703,0.288 4.111,0.864 C -2.286,2.004 -0.668,1.372 0,0" style="fill: rgb(0, 160, 200); fill-opacity: 1; fill-rule: nonzero; stroke: none; --darkreader-inline-fill: #40d9ff; --darkreader-inline-stroke: none;" id="path126" data-darkreader-inline-fill="" data-darkreader-inline-stroke=""/>
        </g>
        <g id="g128" transform="translate(940.2513,504.84)">
          <path d="m 0,0 v 30.019 c 0,1.704 1.382,3.086 3.087,3.086 1.704,0 3.086,-1.382 3.086,-3.086 v -1.533 c 2.023,3.259 5.824,5.569 10.447,5.569 0.361,0 0.721,-0.011 1.079,-0.034 1.764,-0.111 3.083,-1.665 2.913,-3.423 -0.163,-1.686 -1.64,-2.932 -3.33,-2.812 -0.268,0.019 -0.534,0.028 -0.797,0.028 -2.895,0 -5.035,-0.995 -6.911,-2.985 C 7.697,22.838 6.512,19.652 6.512,15.763 V 0 C 6.512,-1.798 5.055,-3.256 3.256,-3.256 1.458,-3.256 0,-1.798 0,0" style="fill: rgb(0, 160, 200); fill-opacity: 1; fill-rule: nonzero; stroke: none; --darkreader-inline-fill: #40d9ff; --darkreader-inline-stroke: none;" id="path130" data-darkreader-inline-fill="" data-darkreader-inline-stroke=""/>
        </g>
        <g id="g132" transform="translate(969.137,510.749)">
          <path d="m 0,0 c 2.193,-2.457 5.088,-3.685 8.686,-3.685 3.597,0 6.515,1.228 8.752,3.685 2.238,2.457 3.356,5.484 3.356,9.081 0,3.51 -1.118,6.493 -3.356,8.95 -2.237,2.456 -5.155,3.685 -8.752,3.685 C 5.088,21.716 2.193,20.487 0,18.031 -2.194,15.574 -3.29,12.569 -3.29,9.016 -3.29,5.462 -2.194,2.457 0,0 m 24.252,27.196 v 0 c 1.723,0 3.12,-1.397 3.12,-3.12 V -6.045 c 0,-1.723 -1.397,-3.12 -3.12,-3.12 -1.723,0 -3.121,1.397 -3.121,3.12 v 1.542 c -3.325,-3.487 -7.529,-5.544 -12.821,-5.544 -5.201,0 -9.531,1.853 -12.991,5.562 -3.46,3.708 -5.19,8.299 -5.19,13.772 0,5.427 1.718,9.915 5.156,13.466 3.437,3.55 7.778,5.325 13.025,5.325 5.155,0 9.007,-1.862 12.821,-5.433 v 1.431 c 0,1.723 1.398,3.12 3.121,3.12" style="fill: rgb(0, 160, 200); fill-opacity: 1; fill-rule: nonzero; stroke: none; --darkreader-inline-fill: #40d9ff; --darkreader-inline-stroke: none;" id="path134" data-darkreader-inline-fill="" data-darkreader-inline-stroke=""/>
        </g>
        <g id="g136" transform="translate(1000.5729,504.7043)">
          <path d="m 0,0 v 30.12 c 0,1.724 1.397,3.121 3.12,3.121 h 0.136 c 1.723,0 3.121,-1.397 3.121,-3.121 v -1.295 c 2.747,3.49 6.15,5.366 11.532,5.366 4.07,0 7.485,-1.313 10.244,-3.935 2.758,-2.623 4.138,-6.4 4.138,-11.329 V 0 c 0,-1.723 -1.397,-3.12 -3.121,-3.12 h -0.203 c -1.724,0 -3.121,1.397 -3.121,3.12 v 17.096 c 0,3.527 -0.859,6.251 -2.577,8.174 -1.72,1.922 -3.712,2.883 -6.47,2.883 -2.94,0 -5.349,-1.041 -7.225,-3.12 C 7.697,22.952 6.512,20.037 6.512,16.781 V 0 c 0,-1.723 -1.397,-3.12 -3.12,-3.12 H 3.12 C 1.397,-3.12 0,-1.723 0,0" style="fill: rgb(0, 160, 200); fill-opacity: 1; fill-rule: nonzero; stroke: none; --darkreader-inline-fill: #40d9ff; --darkreader-inline-stroke: none;" id="path138" data-darkreader-inline-fill="" data-darkreader-inline-stroke=""/>
        </g>
        <g id="g140" transform="translate(837.6549,514.1779)">
          <path d="M 0,0 C -2.102,0 -4.043,-1.515 -4.831,-3.463 L -6.801,-7.9 c -0.997,-2.244 0.569,-4.694 3.225,-4.694 1.543,0 2.928,0.862 3.489,2.171 L 4.628,0 Z" style="fill: rgb(0, 160, 200); fill-opacity: 1; fill-rule: nonzero; stroke: none; --darkreader-inline-fill: #40d9ff; --darkreader-inline-stroke: none;" id="path142" data-darkreader-inline-fill="" data-darkreader-inline-stroke=""/>
        </g>
        <g id="g144" transform="translate(875.0256,506.2664)">
          <path d="m 0,0 -18.965,43.345 c -1.188,2.715 -5.042,2.708 -6.219,-0.012 l -9.641,-22.271 c -1.372,-3.39 0.815,-6.119 4.473,-6.119 h 0.419 l 7.871,18.703 15.321,-36.157 c 0.562,-1.31 1.947,-2.172 3.489,-2.172 h 0.021 C -0.58,-4.683 0.986,-2.242 0,0" style="fill: rgb(0, 160, 200); fill-opacity: 1; fill-rule: nonzero; stroke: none; --darkreader-inline-fill: #40d9ff; --darkreader-inline-stroke: none;" id="path146" data-darkreader-inline-fill="" data-darkreader-inline-stroke=""/>
        </g>
        <g id="g148" transform="translate(857.6281,517.6935)">
          <path d="m 0,0 c 0,-2.591 -2.1,-4.691 -4.691,-4.691 -2.591,0 -4.691,2.1 -4.691,4.691 0,2.591 2.1,4.691 4.691,4.691 C -2.1,4.691 0,2.591 0,0" style="fill: rgb(0, 160, 200); fill-opacity: 1; fill-rule: nonzero; stroke: none; --darkreader-inline-fill: #40d9ff; --darkreader-inline-stroke: none;" id="path150" data-darkreader-inline-fill="" data-darkreader-inline-stroke=""/>
        </g>
      </g>
    </g>
  </g>
</svg>